<?xml version="1.0" encoding="UTF-8" standalone="no"?><!DOCTYPE svg PUBLIC "-//W3C//DTD SVG 1.1//EN" "http://www.w3.org/Graphics/SVG/1.1/DTD/svg11.dtd"><svg width="100%" height="100%" viewBox="0 0 10375 3509" version="1.1" xmlns="http://www.w3.org/2000/svg" xmlns:xlink="http://www.w3.org/1999/xlink" xml:space="preserve" xmlns:serif="http://www.serif.com/" style="fill-rule:evenodd;clip-rule:evenodd;stroke-linejoin:round;stroke-miterlimit:2;"><g><path d="M6556.25,1050.14l-1421.25,2435.85l-268.516,-0.184l1556.52,-2667.68l2817.25,-0l0,232.017l-2684,-0Z" style="fill:#f2f2f2;"/><path d="M3560.1,224.633l-1807.84,7.388c-839.037,-0 -1520.23,681.196 -1520.23,1520.23c-0,839.042 681.196,1520.24 1520.23,1520.24l2251.92,-7.854l140.912,232.02l-2392.83,7.855c-967.096,-0 -1752.25,-785.159 -1752.25,-1752.26c0,-967.096 785.158,-1752.25 1752.25,-1752.25l2198.79,0l-0.138,0.496l137.625,224.137l-528.437,0Zm889.546,588.117l267.391,435.483l-143.754,209.296l-395.904,-644.779l272.267,-0Z" style="fill:#f2f2f2;"/><path d="M6668.54,0l2602.41,0c569.575,0 1026.15,422.142 1026.15,934.133c-0,511.992 -456.571,934.134 -1026.15,934.134l-2468.13,-0l-0,1404.23l554.346,-0l16,-818.121l1343.11,-0l560.084,818.121l623.625,-0l-629.038,-818.121l265.521,-0l683.25,866.746l154.217,183.396l-1219.92,-0.001l-560.083,-818.125l-993.242,0l-16.004,818.126l-1013.89,-0l0,-1868.27l2700.15,-0c435.088,-0 794.125,-311.013 794.125,-702.113c0,-391.1 -359.037,-702.112 -794.125,-702.112l-2466.33,-0l-136.083,-232.021Z" style="fill:#f2f2f2;"/><path d="M5988.88,3.617l133.963,228.404l-1.346,-0l-1534.34,2521.52l-198.962,-1.258l-725.071,-1226.23l0.187,-0.109l-415.146,-707.812l265.909,-0l975.404,1649.59l1499.4,-2464.1Z" style="fill:#f2f2f2;"/><path d="M2566.34,818.125l136.087,232.017l-950.175,-0c-387.504,-0 -702.112,314.608 -702.112,702.112c-0,387.509 314.608,702.117 702.112,702.117l1779.28,-0l134.196,232.016l-1913.48,0c-515.558,0 -934.129,-418.57 -934.129,-934.133c0,-515.558 418.571,-934.129 934.129,-934.129l814.088,-0Z" style="fill:#f2f2f2;"/></g></svg>