<?xml version="1.0" encoding="UTF-8" standalone="no"?><!DOCTYPE svg PUBLIC "-//W3C//DTD SVG 1.1//EN" "http://www.w3.org/Graphics/SVG/1.1/DTD/svg11.dtd"><svg width="100%" height="100%" viewBox="0 0 2490 842" version="1.1" xmlns="http://www.w3.org/2000/svg" xmlns:xlink="http://www.w3.org/1999/xlink" xml:space="preserve" xmlns:serif="http://www.serif.com/" style="fill-rule:evenodd;clip-rule:evenodd;stroke-linejoin:round;stroke-miterlimit:2;"><g><path d="M1573.5,252.034l-341.099,584.603l-64.444,-0.044l373.564,-640.243l676.139,-0l-0,55.684l-644.16,0Z" style="fill:#292929;"/><path d="M854.423,53.912l-433.882,1.773c-201.369,-0 -364.856,163.487 -364.856,364.856c-0,201.37 163.487,364.857 364.856,364.857l540.461,-1.885l33.819,55.685l-574.28,1.885c-232.103,-0 -420.541,-188.438 -420.541,-420.542c-0,-232.103 188.438,-420.541 420.541,-420.541c0,-0 527.71,-0 527.71,-0l-0.033,0.119l33.03,53.793l-126.825,0Zm213.491,141.148l64.174,104.516l-34.501,50.231l-95.017,-154.747l65.344,-0Z" style="fill:#292929;"/><path d="M1600.45,0l624.579,0c136.698,0 246.275,101.314 246.275,224.192c0,122.878 -109.577,224.192 -246.275,224.192l-592.351,-0l0,337.014l133.043,0l3.84,-196.349l322.347,-0l134.42,196.349l149.67,0l-150.969,-196.349l63.725,-0l163.98,208.019l37.012,44.015l-292.78,-0l-134.42,-196.35l-238.378,0l-3.841,196.35l-243.334,-0l0,-448.384l648.036,0c104.421,0 190.59,-74.643 190.59,-168.507c0,-93.864 -86.169,-168.507 -190.59,-168.507l-591.919,-0l-32.66,-55.685Z" style="fill:#292929;"/><path d="M1437.33,0.868l32.151,54.817l-0.323,-0l-368.242,605.164l-47.751,-0.302l-174.017,-294.296l0.045,-0.026l-99.635,-169.875l63.818,-0l234.097,395.902l359.857,-591.384Z" style="fill:#292929;"/><path d="M615.922,196.35l32.661,55.684l-228.042,0c-93.001,0 -168.507,75.506 -168.507,168.507c0,93.002 75.506,168.508 168.507,168.508l427.027,-0l32.207,55.684l-459.234,0c-123.734,0 -224.191,-100.457 -224.191,-224.192c-0,-123.734 100.457,-224.191 224.191,-224.191l195.381,-0Z" style="fill:#292929;"/></g></svg>