<?xml version="1.0" standalone="no"?>
<!DOCTYPE svg PUBLIC "-//W3C//DTD SVG 20010904//EN"
 "http://www.w3.org/TR/2001/REC-SVG-20010904/DTD/svg10.dtd">
<svg version="1.0" xmlns="http://www.w3.org/2000/svg"
 width="1493.000000pt" height="1493.000000pt" viewBox="0 0 1493.000000 1493.000000"
 preserveAspectRatio="xMidYMid meet">
<metadata>
Created by potrace 1.14, written by Peter Selinger 2001-2017
</metadata>
<g transform="translate(0.000000,1493.000000) scale(0.100000,-0.100000)"
fill="#000000" stroke="none">
<path d="M18 10478 c19 -32 165 -281 213 -364 28 -48 286 -491 310 -532 20
-33 260 -446 304 -522 18 -30 70 -120 117 -200 47 -80 94 -161 105 -180 11
-19 43 -74 72 -122 28 -48 51 -89 51 -92 0 -3 13 -25 30 -49 16 -25 30 -50 30
-56 0 -6 5 -11 10 -11 6 0 10 -4 10 -10 0 -5 14 -33 31 -62 18 -29 42 -71 55
-93 12 -22 88 -152 168 -289 80 -137 146 -253 146 -258 0 -4 4 -8 8 -8 4 0 13
-12 20 -27 6 -16 24 -49 39 -74 35 -59 149 -253 175 -299 11 -19 51 -88 89
-152 38 -64 69 -121 69 -127 0 -5 4 -11 8 -13 8 -3 122 -195 122 -205 0 -2 8
-17 19 -31 15 -22 140 -235 291 -497 10 -16 40 -68 67 -115 158 -269 183 -313
183 -319 0 -4 5 -12 12 -19 7 -7 26 -37 43 -66 31 -56 210 -364 232 -401 7
-11 16 -28 19 -37 3 -10 10 -18 15 -18 5 0 9 -4 9 -10 0 -5 19 -42 43 -82 24
-40 46 -80 50 -88 4 -8 16 -28 26 -45 10 -16 71 -120 135 -230 64 -110 120
-207 126 -215 5 -8 21 -36 35 -61 l26 -45 234 -1 234 0 -15 26 c-8 14 -19 33
-24 41 -9 13 -33 56 -90 155 -9 17 -63 109 -120 205 -127 216 -137 234 -169
290 -14 25 -29 47 -33 48 -4 2 -8 8 -8 14 0 5 -48 91 -106 191 -59 100 -118
202 -132 227 -14 24 -49 84 -78 133 -30 49 -54 93 -54 98 0 5 -4 9 -10 9 -5 0
-10 4 -10 10 0 5 -86 157 -191 337 -106 181 -199 342 -209 358 -9 17 -101 174
-204 349 -102 175 -186 323 -186 327 0 5 -4 9 -10 9 -5 0 -9 3 -8 8 1 4 -5 18
-14 32 -12 19 -512 875 -634 1087 -11 18 -109 186 -219 375 -110 188 -201 348
-203 355 -2 7 -8 13 -13 13 -5 0 -9 4 -9 9 0 8 -111 205 -170 301 -52 85 -90
153 -90 161 0 5 -4 9 -10 9 -5 0 -10 4 -10 10 0 5 -18 39 -40 75 -22 36 -40
67 -40 69 0 2 -24 44 -54 93 -29 49 -64 109 -78 134 -47 84 -53 94 -58 99 -5
5 -15 22 -58 99 -13 25 -33 57 -42 71 -9 14 -19 30 -21 36 -2 6 -29 52 -59
102 l-54 92 -234 0 -234 0 20 -32z"/>
<path d="M1742 10472 c13 -21 28 -47 35 -57 17 -28 132 -224 153 -260 9 -16
77 -131 150 -255 73 -124 146 -250 163 -280 16 -30 36 -62 43 -71 8 -8 14 -18
14 -21 0 -3 33 -62 74 -130 40 -67 98 -166 128 -218 78 -134 296 -506 319
-544 10 -17 22 -38 26 -46 6 -12 161 -278 193 -330 58 -96 120 -204 120 -211
0 -5 5 -9 10 -9 6 0 10 -4 10 -9 0 -8 32 -65 117 -206 13 -22 26 -48 30 -57 3
-10 9 -18 14 -18 5 0 9 -4 9 -9 0 -10 65 -125 85 -151 7 -8 25 -40 41 -70 16
-30 31 -57 34 -60 5 -4 201 -335 234 -395 6 -11 19 -31 28 -45 30 -45 69 -115
75 -132 3 -10 9 -18 14 -18 5 0 9 -4 9 -10 0 -5 41 -77 90 -159 50 -82 90
-155 90 -160 0 -6 5 -11 10 -11 6 0 10 -4 10 -9 0 -4 32 -61 70 -125 39 -65
70 -121 70 -127 0 -5 4 -9 9 -9 5 0 11 -8 15 -17 6 -20 38 -76 53 -95 6 -7 21
-33 35 -58 14 -25 68 -117 120 -205 l96 -160 171 0 171 0 32 50 c18 28 39 61
46 75 7 14 20 37 30 52 45 69 92 150 92 158 0 5 3 10 8 12 4 2 49 73 101 158
52 85 131 216 176 290 285 468 333 548 346 570 8 14 17 27 20 30 3 3 8 10 10
15 3 8 133 223 189 315 59 94 167 271 180 295 10 17 43 73 75 125 188 307 330
539 345 566 10 17 41 68 70 114 29 46 60 98 70 115 24 44 236 390 268 440 15
22 27 42 27 45 0 3 44 75 98 162 53 86 97 160 97 166 0 5 9 17 20 27 11 10 20
22 20 26 0 11 63 113 73 117 4 2 7 8 7 13 0 5 49 90 110 188 60 99 115 191
121 205 7 14 16 26 21 26 13 0 9 44 -6 65 -7 11 -23 36 -33 55 -11 19 -55 95
-98 168 l-78 132 -19 -27 c-40 -59 -218 -356 -218 -364 0 -5 -4 -9 -10 -9 -5
0 -10 -5 -10 -10 0 -6 -18 -38 -40 -71 -22 -33 -40 -62 -40 -64 0 -9 -144
-240 -151 -243 -5 -2 -9 -8 -9 -14 0 -5 -26 -52 -57 -104 -32 -52 -65 -107
-74 -122 -9 -15 -56 -92 -105 -172 -49 -80 -129 -210 -177 -290 -105 -172 -92
-152 -167 -273 -33 -54 -60 -100 -60 -103 0 -3 -5 -10 -10 -17 -9 -10 -398
-647 -461 -755 -73 -124 -175 -288 -181 -290 -5 -2 -8 -9 -8 -16 0 -8 -8 -24
-18 -37 -11 -13 -32 -47 -48 -75 -16 -28 -87 -147 -159 -263 -71 -117 -139
-226 -149 -244 -10 -18 -26 -44 -35 -59 -108 -183 -396 -648 -401 -648 -4 0
-12 10 -18 23 -7 12 -26 47 -44 78 -28 47 -422 715 -449 759 -94 158 -217 368
-222 380 -4 8 -15 29 -26 45 -35 57 -144 240 -162 271 -9 17 -23 42 -31 55 -7
13 -15 26 -18 29 -5 5 -14 20 -58 99 -14 25 -36 62 -49 81 -12 19 -23 40 -23
46 0 7 -4 14 -8 16 -4 2 -27 37 -51 78 -75 129 -232 397 -262 445 -11 17 -25
41 -32 55 -7 14 -24 43 -38 65 -14 22 -40 67 -58 100 -18 33 -37 65 -41 70 -9
11 -519 875 -558 945 -13 25 -30 52 -36 60 -7 8 -18 26 -24 40 -7 14 -24 43
-37 65 -14 22 -28 48 -32 58 -3 9 -9 17 -14 17 -5 0 -9 6 -9 14 0 7 -7 19 -15
26 -8 7 -12 16 -9 21 3 5 0 9 -5 9 -6 0 -11 7 -11 15 0 8 -4 15 -8 15 -4 0
-13 12 -19 28 -13 30 -55 104 -64 112 -3 3 -25 40 -49 83 l-44 77 -233 0 -233
0 22 -38z"/>
<path d="M8500 10504 c0 -4 13 -28 29 -53 15 -25 63 -107 106 -181 43 -74 84
-142 92 -150 12 -13 277 -15 2226 -16 1217 -1 2226 -4 2242 -7 17 -3 46 -8 65
-12 19 -3 46 -8 60 -10 14 -1 45 -8 70 -15 25 -7 50 -13 55 -15 6 -1 19 -5 30
-9 123 -45 165 -62 193 -78 17 -11 32 -17 32 -14 0 5 52 -26 155 -92 22 -14
67 -48 100 -76 225 -187 372 -431 421 -700 15 -80 20 -277 9 -326 -3 -14 -7
-38 -10 -55 -23 -152 -106 -341 -210 -479 -75 -100 -221 -246 -246 -246 -5 0
-9 -3 -9 -8 0 -7 -80 -63 -130 -91 -214 -118 -392 -174 -625 -198 -38 -4
-1141 -7 -2450 -7 l-2380 0 1 -1616 c1 -888 2 -1618 3 -1622 1 -5 396 -8 879
-8 l879 0 2 133 c8 425 10 532 16 832 4 182 8 358 8 393 l0 62 865 -2 865 -3
33 -50 c19 -27 38 -54 42 -60 26 -34 142 -208 142 -215 0 -4 7 -10 15 -14 8
-3 15 -12 15 -19 0 -8 9 -22 20 -32 11 -10 20 -23 20 -28 0 -6 8 -20 19 -31
10 -12 44 -59 74 -106 31 -47 60 -89 65 -95 4 -5 34 -50 67 -100 33 -49 62
-92 65 -95 5 -4 62 -88 164 -240 17 -25 34 -49 39 -55 4 -5 49 -70 98 -142
l90 -133 1061 0 1060 0 -24 28 c-12 15 -57 68 -98 117 -41 50 -82 97 -90 105
-9 8 -60 71 -114 140 -54 69 -111 141 -126 160 -16 19 -48 60 -71 90 -24 30
-47 60 -51 65 -5 6 -40 51 -79 100 -38 50 -84 108 -102 129 -18 21 -36 46 -41
55 -5 9 -14 21 -20 26 -7 6 -25 28 -41 50 -17 22 -32 42 -36 45 -3 3 -30 37
-59 75 -47 61 -109 140 -198 251 -13 16 -74 94 -135 173 -62 79 -126 159 -144
179 l-31 37 -226 0 c-124 0 -226 -2 -226 -4 0 -4 150 -202 160 -211 3 -3 25
-32 50 -65 39 -52 271 -354 303 -395 7 -8 28 -35 47 -60 19 -25 38 -46 42 -48
5 -2 8 -10 8 -17 0 -7 3 -15 8 -17 4 -1 40 -46 80 -99 39 -52 81 -105 92 -117
11 -11 20 -24 20 -27 0 -4 6 -12 13 -20 20 -21 219 -282 239 -313 l18 -28
-539 0 c-297 1 -541 3 -543 6 -2 3 -41 61 -87 130 -46 69 -92 134 -101 145
-10 11 -19 25 -21 30 -7 18 -183 270 -191 273 -4 2 -8 8 -8 13 0 8 -129 201
-162 244 -5 6 -34 48 -65 95 -31 47 -60 87 -65 88 -4 2 -8 8 -8 12 0 5 -15 30
-32 56 -18 25 -37 53 -43 62 -10 16 -18 27 -41 55 -6 7 -13 17 -15 23 -2 5
-32 50 -66 99 l-62 90 -1160 0 c-637 0 -1162 -3 -1166 -7 -4 -3 -8 -91 -10
-195 -7 -346 -22 -1092 -24 -1189 l-1 -30 -480 0 -480 0 0 65 c-1 79 -1 2230
0 2316 l0 60 2208 0 c1214 0 2239 3 2277 7 60 7 113 15 200 32 11 2 49 12 85
21 36 9 73 19 83 20 9 2 69 24 131 49 63 26 119 46 124 46 6 0 12 3 14 8 2 4
32 22 68 41 71 37 214 130 245 159 11 10 31 25 45 35 41 28 179 167 235 237
147 182 271 430 311 619 36 176 48 372 31 521 -17 144 -64 308 -126 445 -34
74 -117 222 -137 242 -7 7 -22 28 -34 48 -12 19 -26 35 -31 35 -5 0 -9 5 -9
10 0 23 -145 170 -255 260 -102 83 -185 136 -309 200 -210 107 -388 161 -646
198 -61 9 -4740 14 -4740 6z"/>
<path d="M8053 9061 c-10 -14 -18 -28 -18 -31 -1 -7 -58 -104 -65 -110 -3 -3
-11 -16 -18 -30 -6 -14 -16 -32 -22 -40 -14 -22 -335 -574 -343 -591 -4 -8
-16 -27 -27 -44 -10 -16 -29 -49 -41 -72 -13 -24 -26 -43 -31 -43 -4 0 -8 -9
-8 -19 0 -11 -4 -22 -9 -26 -5 -3 -23 -29 -39 -58 -15 -28 -38 -68 -49 -87
-11 -19 -100 -172 -198 -340 -97 -168 -186 -317 -196 -332 -10 -15 -19 -29
-19 -31 0 -5 -252 -440 -270 -467 -6 -8 -15 -24 -21 -35 -5 -11 -21 -38 -34
-60 -13 -22 -36 -60 -50 -85 -28 -49 -46 -80 -90 -155 -17 -27 -35 -59 -42
-70 -7 -11 -17 -29 -22 -40 -6 -11 -22 -38 -36 -60 -14 -22 -32 -53 -40 -70
-9 -16 -27 -48 -40 -70 -14 -22 -28 -47 -32 -55 -3 -8 -15 -26 -26 -40 -10
-14 -25 -38 -33 -55 -7 -16 -24 -48 -38 -70 -14 -22 -31 -51 -39 -65 -7 -14
-92 -160 -189 -325 -96 -165 -184 -316 -196 -335 -11 -19 -81 -140 -156 -268
-75 -128 -136 -237 -136 -242 0 -6 -4 -10 -10 -10 -5 0 -10 -4 -10 -10 0 -5
-20 -43 -45 -83 -25 -41 -45 -77 -45 -79 0 -2 106 -4 235 -5 129 0 235 3 235
7 0 5 18 38 40 74 22 36 40 70 40 75 0 5 3 11 8 13 4 2 45 68 91 148 221 383
310 535 320 547 6 7 11 15 11 18 0 6 92 167 100 175 3 3 12 19 20 35 8 17 26
46 39 65 12 19 27 44 32 55 5 11 13 27 19 35 32 49 120 204 120 211 0 5 5 9
10 9 6 0 10 4 10 10 0 13 361 633 375 642 5 4 6 8 1 8 -5 0 -3 8 5 18 8 9 20
28 28 42 8 14 52 90 99 170 46 80 94 161 105 180 11 19 32 55 46 80 14 25 29
47 33 48 4 2 8 8 8 13 0 8 44 86 196 346 11 17 46 78 79 134 33 56 71 121 84
143 13 23 33 57 44 76 11 19 41 71 68 116 27 45 49 85 49 91 0 5 8 18 18 29 9
11 28 40 42 65 14 25 90 159 170 296 103 179 151 252 165 255 11 2 1061 3
2333 3 1271 0 2312 2 2313 5 5 38 0 382 -5 387 -4 5 -1105 8 -2447 9 l-2439 1
-17 -26z"/>
</g>
</svg>
